<svg xmlns="http://www.w3.org/2000/svg" viewBox="0 0 222.5 174.5"><defs><style>.cls-1,.cls-3{fill:none;}.cls-1,.cls-2{stroke:#000;}.cls-1,.cls-2,.cls-3,.cls-4{stroke-miterlimit:10;stroke-width:3px;}.cls-2{fill:#fff;}.cls-3,.cls-4{stroke:#0014b4;stroke-linecap:round;}.cls-4{fill:#0071bc;}</style></defs><g id="Layer_2" data-name="Layer 2"><g id="Layer_1-2" data-name="Layer 1"><path class="cls-1" d="M188.78,145.5H18.22C9,145.5,1.5,137.61,1.5,127.88V19.12C1.5,9.39,9,1.5,18.22,1.5H188.78c9.24,0,16.72,7.89,16.72,17.62V127.88C205.5,137.61,198,145.5,188.78,145.5Z"/><ellipse class="cls-1" cx="39.1" cy="48.7" rx="15.53" ry="16.36"/><rect class="cls-1" x="13.11" y="73.33" width="54.27" height="41"/><line class="cls-2" x1="82.04" y1="48.7" x2="181" y2="48.7"/><line class="cls-2" x1="76.74" y1="73.5" x2="189.83" y2="73.33"/><line class="cls-2" x1="82.04" y1="104.95" x2="181" y2="104.95"/><ellipse class="cls-2" cx="180.5" cy="134.5" rx="40.5" ry="38.5"/><line class="cls-3" x1="181" y1="106.01" x2="181" y2="162.22"/><line class="cls-4" x1="150.83" y1="132" x2="211.17" y2="132"/></g></g></svg>